<svg xmlns="http://www.w3.org/2000/svg" width="168.779" height="61.719" viewBox="0 0 168.779 61.719"><g transform="translate(107.005)"><g transform="translate(0.072)"><path d="M9.111,0H1.881A1.808,1.808,0,0,0,.073,1.808V9.159a1.808,1.808,0,1,0,3.615,0V3.615H9.111A1.808,1.808,0,1,0,9.111,0Z" transform="translate(-0.073)" fill="#cecece"/></g><g transform="translate(50.928)"><path d="M430.991,0h-7.231a1.808,1.808,0,1,0,0,3.615h5.423V9.159a1.808,1.808,0,1,0,3.615,0V1.808A1.808,1.808,0,0,0,430.991,0Z" transform="translate(-421.953)" fill="#cecece"/></g><g transform="translate(0.072 50.735)"><path d="M9.11,428.232H3.687v-5.544a1.808,1.808,0,1,0-3.615,0v7.351a1.808,1.808,0,0,0,1.808,1.808H9.11a1.808,1.808,0,0,0,0-3.615Z" transform="translate(-0.072 -420.881)" fill="#cecece"/></g><g transform="translate(50.928 50.735)"><path d="M430.991,420.881a1.808,1.808,0,0,0-1.808,1.808v5.544h-5.423a1.808,1.808,0,1,0,0,3.615h7.231a1.808,1.808,0,0,0,1.808-1.808v-7.351A1.808,1.808,0,0,0,430.991,420.881Z" transform="translate(-421.953 -420.881)" fill="#cecece"/></g><g transform="translate(3.928 0)"><path d="M85.14,14.83,59.964.244a1.808,1.808,0,0,0-1.812,0L32.965,14.83a1.813,1.813,0,0,0-.9,1.563s0,.007,0,.011V45.326a1.813,1.813,0,0,0,.92,1.575L58.151,61.476a1.808,1.808,0,0,0,1.813,0L85.122,46.9l.013-.007a1.717,1.717,0,0,0,.906-1.546c0-.007,0-.014,0-.022V16.4s0-.007,0-.011A1.812,1.812,0,0,0,85.14,14.83ZM57.25,56.776,37.5,45.334,52.726,36.6a1.808,1.808,0,1,0-1.8-3.136L35.678,42.205V19.518L57.25,31.906Zm1.808-28L37.5,16.388,59.058,3.9,80.616,16.388Zm23.38,13.43-15.25-8.739a1.808,1.808,0,0,0-1.8,3.136l15.225,8.731L60.865,56.776V31.906L82.438,19.518V42.205Z" transform="translate(-32.063 0)" fill="#cecece"/></g></g><text transform="translate(0 39.86)" fill="#919191" font-size="20" font-family="SegoeUI-Semibold, Segoe UI" font-weight="600"><tspan x="0" y="0">VER EN 3D</tspan></text></svg>