{
    "asset" : {
        "generator" : "Khronos glTF Blender I/O v1.4.40",
        "version" : "2.0"
    },
    "scene" : 0,
    "scenes" : [
        {
            "name" : "Scene",
            "nodes" : [
                0
            ]
        }
    ],
    "nodes" : [
        {
            "mesh" : 0,
            "name" : "Horno Final"
        }
    ],
    "meshes" : [
        {
            "name" : "Cube.007",
            "primitives" : [
                {
                    "attributes" : {
                        "POSITION" : 0,
                        "NORMAL" : 1,
                        "TEXCOORD_0" : 2
                    },
                    "indices" : 3
                }
            ]
        }
    ],
    "accessors" : [
        {
            "bufferView" : 0,
            "componentType" : 5126,
            "count" : 8964,
            "max" : [
                0.6509954929351807,
                1.0933748483657837,
                0.9105325937271118
            ],
            "min" : [
                -0.6009954810142517,
                -1,
                -0.7374267578125
            ],
            "type" : "VEC3"
        },
        {
            "bufferView" : 1,
            "componentType" : 5126,
            "count" : 8964,
            "type" : "VEC3"
        },
        {
            "bufferView" : 2,
            "componentType" : 5126,
            "count" : 8964,
            "type" : "VEC2"
        },
        {
            "bufferView" : 3,
            "componentType" : 5123,
            "count" : 23010,
            "type" : "SCALAR"
        }
    ],
    "bufferViews" : [
        {
            "buffer" : 0,
            "byteLength" : 107568,
            "byteOffset" : 0
        },
        {
            "buffer" : 0,
            "byteLength" : 107568,
            "byteOffset" : 107568
        },
        {
            "buffer" : 0,
            "byteLength" : 71712,
            "byteOffset" : 215136
        },
        {
            "buffer" : 0,
            "byteLength" : 46020,
            "byteOffset" : 286848
        }
    ],
    "buffers" : [
        {
            "byteLength" : 332868,
            "uri" : "data:application/octet-stream;base64,"
        }
    ]
}
